<svg width="60" height="60" viewBox="0 0 60 60" fill="none" xmlns="http://www.w3.org/2000/svg">
<path d="M22.7083 34.3749C19.8888 34.3749 17.4826 33.3784 15.4895 31.3853C13.4964 29.3923 12.4999 26.986 12.4999 24.1666C12.4999 21.3471 13.4964 18.9409 15.4895 16.9478C17.4826 14.9548 19.8888 13.9583 22.7083 13.9583C25.5277 13.9583 27.9339 14.9548 29.927 16.9478C31.9201 18.9409 32.9166 21.3471 32.9166 24.1666C32.9166 26.986 31.9201 29.3923 29.927 31.3853C27.9339 33.3784 25.5277 34.3749 22.7083 34.3749ZM22.7083 28.5416C23.9235 28.5416 24.956 28.1158 25.8058 27.2641C26.6574 26.4144 27.0833 25.3819 27.0833 24.1666C27.0833 22.9513 26.6574 21.9188 25.8058 21.0691C24.956 20.2174 23.9235 19.7916 22.7083 19.7916C21.493 19.7916 20.4605 20.2174 19.6108 21.0691C18.7591 21.9188 18.3333 22.9513 18.3333 24.1666C18.3333 25.3819 18.7591 26.4144 19.6108 27.2641C20.4605 28.1158 21.493 28.5416 22.7083 28.5416ZM43.1249 37.2916C41.0832 37.2916 39.3576 36.5867 37.9478 35.177C36.5381 33.7673 35.8333 32.0416 35.8333 29.9999C35.8333 27.9583 36.5381 26.2326 37.9478 24.8228C39.3576 23.4131 41.0832 22.7083 43.1249 22.7083C45.1666 22.7083 46.8923 23.4131 48.302 24.8228C49.7117 26.2326 50.4166 27.9583 50.4166 29.9999C50.4166 32.0416 49.7117 33.7673 48.302 35.177C46.8923 36.5867 45.1666 37.2916 43.1249 37.2916ZM25.0416 52.7499C27.2291 48.3263 30.1458 45.3727 33.7916 43.8891C37.4374 42.4074 40.5485 41.6666 43.1249 41.6666C44.243 41.6666 45.3367 41.7638 46.4062 41.9583C47.4756 42.1527 48.5208 42.3958 49.5416 42.6874C50.7083 40.8402 51.6319 38.8471 52.3124 36.7083C52.993 34.5694 53.3332 32.3333 53.3332 29.9999C53.3332 23.486 51.0728 17.9687 46.552 13.4478C42.0312 8.927 36.5138 6.66658 29.9999 6.66658C23.486 6.66658 17.9687 8.927 13.4478 13.4478C8.927 17.9687 6.66658 23.486 6.66658 29.9999C6.66658 32.1874 6.94561 34.2777 7.50367 36.2707C8.06367 38.2638 8.9027 40.111 10.0208 41.8124C11.9166 40.8402 13.9223 40.0867 16.0378 39.552C18.1514 39.0173 20.3749 38.7499 22.7083 38.7499C24.2638 38.7499 25.7591 38.8831 27.1941 39.1495C28.6271 39.4178 30.0485 39.7707 31.4583 40.2082C30.3402 40.7916 29.2834 41.4721 28.2878 42.2499C27.2903 43.0277 26.3541 43.8541 25.4791 44.7291C24.8958 44.6319 24.398 44.5832 23.9857 44.5832H22.7083C21.1041 44.5832 19.5485 44.7534 18.0416 45.0937C16.5346 45.4339 15.0763 45.9444 13.6666 46.6249C15.2221 48.1805 16.9605 49.4813 18.8816 50.5274C20.8008 51.5716 22.8541 52.3124 25.0416 52.7499ZM29.9999 59.1666C25.9652 59.1666 22.1735 58.4005 18.6249 56.8682C15.0763 55.338 11.9895 53.2603 9.3645 50.6353C6.7395 48.0103 4.66186 44.9235 3.13159 41.3749C1.59936 37.8263 0.833252 34.0346 0.833252 29.9999C0.833252 25.9652 1.59936 22.1735 3.13159 18.6249C4.66186 15.0763 6.7395 11.9895 9.3645 9.3645C11.9895 6.7395 15.0763 4.66089 18.6249 3.12867C22.1735 1.59839 25.9652 0.833252 29.9999 0.833252C34.0346 0.833252 37.8263 1.59839 41.3749 3.12867C44.9235 4.66089 48.0103 6.7395 50.6353 9.3645C53.2603 11.9895 55.338 15.0763 56.8682 18.6249C58.4005 22.1735 59.1666 25.9652 59.1666 29.9999C59.1666 34.0346 58.4005 37.8263 56.8682 41.3749C55.338 44.9235 53.2603 48.0103 50.6353 50.6353C48.0103 53.2603 44.9235 55.338 41.3749 56.8682C37.8263 58.4005 34.0346 59.1666 29.9999 59.1666Z" fill="#F58220"/>
</svg>
