<svg width="64" height="54" viewBox="0 0 64 54" fill="none" xmlns="http://www.w3.org/2000/svg">
<path d="M19.05 53.1091V47.2081H25.4V41.3071H6.35C4.60375 41.3071 3.10938 40.7297 1.8669 39.5751C0.6223 38.4185 0 37.0288 0 35.406V5.90101C0 4.27823 0.6223 2.88854 1.8669 1.73195C3.10938 0.577315 4.60375 0 6.35 0H57.15C58.8962 0 60.3917 0.577315 61.6363 1.73195C62.8788 2.88854 63.5 4.27823 63.5 5.90101V35.406C63.5 37.0288 62.8788 38.4185 61.6363 39.5751C60.3917 40.7297 58.8962 41.3071 57.15 41.3071H38.1V47.2081H44.45V53.1091H19.05ZM6.35 35.406H57.15V5.90101H6.35V35.406Z" fill="#F58220"/>
<g clip-path="url(#clip0_4504_5071)">
<path d="M31.5575 11.2891C32.7483 11.2891 33.8903 11.7621 34.7324 12.6041C35.5744 13.4461 36.0474 14.5882 36.0474 15.779C36.0474 16.9698 35.5744 18.1118 34.7324 18.9538C33.8903 19.7958 32.7483 20.2689 31.5575 20.2689C30.3667 20.2689 29.2247 19.7958 28.3827 18.9538C27.5407 18.1118 27.0676 16.9698 27.0676 15.779C27.0676 14.5882 27.5407 13.4461 28.3827 12.6041C29.2247 11.7621 30.3667 11.2891 31.5575 11.2891ZM22.5777 14.4961C23.2961 14.4961 23.9632 14.6886 24.5404 15.0349C24.348 16.8694 24.8868 18.691 25.99 20.1149C25.3486 21.3464 24.0658 22.1931 22.5777 22.1931C21.557 22.1931 20.5782 21.7876 19.8564 21.0659C19.1347 20.3442 18.7292 19.3653 18.7292 18.3446C18.7292 17.3239 19.1347 16.3451 19.8564 15.6233C20.5782 14.9016 21.557 14.4961 22.5777 14.4961ZM40.5373 14.4961C41.558 14.4961 42.5369 14.9016 43.2586 15.6233C43.9803 16.3451 44.3858 17.3239 44.3858 18.3446C44.3858 19.3653 43.9803 20.3442 43.2586 21.0659C42.5369 21.7876 41.558 22.1931 40.5373 22.1931C39.0492 22.1931 37.7664 21.3464 37.125 20.1149C38.2435 18.671 38.7626 16.8517 38.5746 15.0349C39.1519 14.6886 39.8189 14.4961 40.5373 14.4961ZM23.2191 27.6451C23.2191 24.9897 26.9522 22.8345 31.5575 22.8345C36.1629 22.8345 39.8959 24.9897 39.8959 27.6451V29.8901H23.2191V27.6451ZM16.1636 29.8901V27.9658C16.1636 26.1827 18.5881 24.6818 21.8722 24.2456C21.1153 25.118 20.6535 26.3238 20.6535 27.6451V29.8901H16.1636ZM46.9515 29.8901H42.4616V27.6451C42.4616 26.3238 41.9997 25.118 41.2429 24.2456C44.5269 24.6818 46.9515 26.1827 46.9515 27.9658V29.8901Z" fill="#F58220"/>
</g>
<defs>
<clipPath id="clip0_4504_5071">
<rect width="30.7879" height="30.7879" fill="white" transform="translate(16.1636 4.2334)"/>
</clipPath>
</defs>
</svg>
